<svg width="80" height="80" viewBox="0 0 80 80" fill="none" xmlns="http://www.w3.org/2000/svg">
<g id="Account Icon">
<path id="Vector" d="M40 6.66666C21.6 6.66666 6.66669 21.6 6.66669 40C6.66669 58.4 21.6 73.3333 40 73.3333C58.4 73.3333 73.3334 58.4 73.3334 40C73.3334 21.6 58.4 6.66666 40 6.66666ZM40 20C46.4334 20 51.6667 25.2333 51.6667 31.6667C51.6667 38.1 46.4334 43.3333 40 43.3333C33.5667 43.3333 28.3334 38.1 28.3334 31.6667C28.3334 25.2333 33.5667 20 40 20ZM40 66.6667C33.2334 66.6667 25.2334 63.9333 19.5334 57.0667C25.372 52.4857 32.5788 49.996 40 49.996C47.4213 49.996 54.628 52.4857 60.4667 57.0667C54.7667 63.9333 46.7667 66.6667 40 66.6667Z" fill="url(#paint0_linear_151_70)"/>
</g>
<defs>
<linearGradient id="paint0_linear_151_70" x1="18.3374" y1="6.66666" x2="80.3175" y2="6.66666" gradientUnits="userSpaceOnUse">
<stop offset="0.155" stop-color="#FF7AF2"/>
<stop offset="0.529" stop-color="#95FEC8"/>
</linearGradient>
</defs>
</svg>
