<svg width="59" height="63" viewBox="0 0 59 63" fill="none" xmlns="http://www.w3.org/2000/svg">
<path id="Vector" d="M29.1674 0C39.9037 0 49.5841 7.48125 49.5841 17.5V30.7387C49.5841 32.6112 50.1353 34.44 51.1737 35.9975L57.5903 45.6167C58.0359 46.2832 58.2919 47.0583 58.3311 47.8591C58.3703 48.6599 58.1912 49.4563 57.8129 50.1632C57.4346 50.87 56.8713 51.4608 56.1833 51.8724C55.4953 52.284 54.7083 52.5009 53.9066 52.5H39.3758C39.3758 53.8406 39.1117 55.168 38.5987 56.4066C38.0857 57.6451 37.3337 58.7705 36.3858 59.7184C35.4379 60.6663 34.3125 61.4182 33.074 61.9313C31.8355 62.4443 30.508 62.7083 29.1674 62.7083C27.8268 62.7083 26.4994 62.4443 25.2609 61.9313C24.0223 61.4182 22.897 60.6663 21.949 59.7184C21.0011 58.7705 20.2492 57.6451 19.7362 56.4066C19.2231 55.168 18.9591 53.8406 18.9591 52.5H4.43117C3.62979 52.5007 2.84326 52.2838 2.15544 51.8726C1.46763 51.4613 0.904329 50.8711 0.525609 50.1649C0.14689 49.4586 -0.0330456 48.6628 0.00499088 47.8624C0.0430273 47.0619 0.297609 46.2867 0.741588 45.6196L7.15826 35.9975C8.19663 34.4402 8.75074 32.6104 8.75076 30.7387V17.5C8.75076 7.48125 18.4283 0 29.1674 0ZM13.1258 17.5V30.7387C13.1265 33.4739 12.3177 36.148 10.8012 38.4242L4.38451 48.0433L4.37576 48.0725L4.37867 48.0929L4.39034 48.1104L4.40784 48.1221L4.42826 48.125H53.9066L53.927 48.1221L53.9445 48.1104L53.9562 48.0929L53.9591 48.0754C53.9593 48.065 53.9562 48.0548 53.9503 48.0462L47.5366 38.4242C46.0195 36.1481 45.2097 33.4741 45.2091 30.7387V17.5C45.2091 10.605 38.2587 4.375 29.1674 4.375C20.0762 4.375 13.1258 10.605 13.1258 17.5ZM35.0008 52.5H23.3341C23.3341 54.0471 23.9487 55.5308 25.0426 56.6248C26.1366 57.7187 27.6203 58.3333 29.1674 58.3333C30.7145 58.3333 32.1982 57.7187 33.2922 56.6248C34.3862 55.5308 35.0008 54.0471 35.0008 52.5Z" fill="url(#paint0_linear_151_73)"/>
<defs>
<linearGradient id="paint0_linear_151_73" x1="10.2124" y1="2.22838e-07" x2="64.4478" y2="6.79464e-07" gradientUnits="userSpaceOnUse">
<stop offset="0.155" stop-color="#FF7AF2"/>
<stop offset="0.529" stop-color="#95FEC8"/>
</linearGradient>
</defs>
</svg>
